<svg width="997" height="522" viewBox="0 0 997 522" fill="none" xmlns="http://www.w3.org/2000/svg">
<mask id="mask0_2224_1114" style="mask-type:luminance" maskUnits="userSpaceOnUse" x="-341" y="0" width="1338" height="743">
<path d="M997 0H-341V743H997V0Z" fill="white"/>
</mask>
<g mask="url(#mask0_2224_1114)">
<path d="M909.293 83.837C857.54 34.8667 788.661 5.48779 715.616 1.2293C642.576 -3.02919 570.407 18.1263 512.696 60.7146C459.997 21.9624 395.161 0.920439 328.424 0.9082C261.687 0.895961 196.847 21.9142 144.131 60.647C84.0088 15.9961 8.14786 -5.25209 -67.9653 1.24046C-144.078 7.73298 -214.702 41.4766 -265.421 95.5824C-316.139 149.688 -343.126 220.076 -340.872 292.375C-338.618 364.675 -307.293 433.436 -253.292 484.615L-68.8736 659.188C-68.7308 659.319 -68.588 659.446 -68.4273 659.581C-68.2666 659.716 -68.2219 659.78 -68.1193 659.877C-67.9273 660.058 -67.722 660.223 -67.5301 660.405C-64.5987 663.151 -61.6232 665.825 -58.6026 668.432C-57.0492 669.78 -55.478 671.085 -53.8979 672.399C-52.6154 673.455 -51.3268 674.503 -50.0323 675.538C2.53784 717.698 68.837 741.454 137.725 742.806C206.618 744.162 273.9 723.038 328.277 682.978C385.988 725.564 458.158 746.722 531.198 742.463C604.242 738.205 673.122 708.825 724.874 659.856L909.297 485.308C965.464 432.029 997.005 359.836 997.005 284.572C997.005 209.307 965.46 137.116 909.293 83.837ZM328.366 74.8466C372.213 74.82 415.083 87.1061 451.547 110.149C488.016 133.193 516.436 165.958 533.22 204.297C550.003 242.636 554.391 284.826 545.83 325.527C537.268 366.228 516.142 403.61 485.123 432.941L328.366 581.304L171.605 432.941C140.586 403.61 119.46 366.227 110.898 325.526C102.336 284.825 106.725 242.634 123.508 204.295C140.292 165.955 168.717 133.191 205.181 110.148C241.65 87.1049 284.519 74.8191 328.366 74.8466ZM-77.752 459.127C-77.8319 431.56 -72.1335 404.254 -60.9876 378.787C-49.8417 353.32 -33.4692 330.198 -12.8182 310.76L28.9042 271.271C26.8843 310.742 33.6143 350.177 48.6619 387.04C63.7096 423.9 86.7419 457.373 116.277 485.308L269.829 630.641C236.708 652.597 197.856 665.53 157.504 668.022C117.156 670.515 76.8548 662.479 40.999 644.786C5.14332 627.088 -24.8926 600.421 -45.8341 567.679C-66.7752 534.941 -77.8189 497.386 -77.7609 459.114L-77.752 459.127ZM-197.973 432.244C-237.212 395.115 -260.311 345.407 -262.708 292.942C-265.106 240.476 -246.627 189.066 -210.923 148.869C-175.219 108.672 -124.884 82.6101 -69.8641 75.8314C-14.8434 69.0527 40.8625 82.0507 86.2496 112.257L-68.1461 258.389C-96.0849 284.689 -118.235 315.973 -133.314 350.43C-148.392 384.886 -156.101 421.831 -155.992 459.127C-155.992 463.529 -155.884 467.914 -155.666 472.287L-197.973 432.244ZM512.798 668.943C467.505 669.045 423.283 655.914 386.167 631.342L540.473 485.308C570.01 457.373 593.038 423.9 608.085 387.039C623.132 350.177 629.864 310.742 627.846 271.271L669.569 310.76C700.574 340.105 721.682 377.492 730.235 418.194C738.792 458.894 734.4 501.083 717.616 539.423C700.837 577.763 672.421 610.531 635.966 633.586C599.506 656.641 556.645 668.943 512.798 668.943ZM853.974 432.941L812.403 472.287C812.613 467.918 812.72 463.533 812.729 459.127C812.836 421.831 805.127 384.886 790.049 350.429C774.97 315.972 752.817 284.689 724.879 258.389L570.59 112.354C616.057 82.4081 671.725 69.6585 726.628 76.6155C781.532 83.5721 831.695 109.732 867.24 149.943C902.785 190.154 921.135 241.503 918.68 293.881C916.225 346.258 893.143 395.867 853.974 432.941Z" fill="url(#paint0_linear_2224_1114)"/>
</g>
<defs>
<linearGradient id="paint0_linear_2224_1114" x1="328.001" y1="0.09375" x2="328.001" y2="743.001" gradientUnits="userSpaceOnUse">
<stop stop-color="#848484" stop-opacity="0.68"/>
<stop offset="1" stop-color="#454545" stop-opacity="0.86"/>
</linearGradient>
</defs>
</svg>
