<svg width="718" height="176" viewBox="0 0 718 176" fill="none" xmlns="http://www.w3.org/2000/svg">
<mask id="mask0_2232_250" style="mask-type:luminance" maskUnits="userSpaceOnUse" x="0" y="0" width="300" height="176">
<path d="M299.75 0H0V175.866H299.75V0Z" fill="white"/>
</mask>
<g mask="url(#mask0_2232_250)">
<path d="M280.101 19.844C268.507 8.25288 253.076 1.29897 236.712 0.290999C220.349 -0.716974 204.181 4.29048 191.252 14.371C179.446 5.19846 164.921 0.217892 149.97 0.214995C135.019 0.212098 120.493 5.18705 108.683 14.355C95.214 3.78625 78.219 -1.24313 61.1675 0.293639C44.1161 1.8304 28.2942 9.81743 16.9319 22.6241C5.56959 35.4308 -0.476213 52.0913 0.0287454 69.2044C0.533704 86.3175 7.55134 102.593 19.649 114.707L60.964 156.028C60.996 156.059 61.028 156.089 61.064 156.121C61.1 156.153 61.11 156.168 61.133 156.191C61.176 156.234 61.222 156.273 61.265 156.316C61.9217 156.966 62.5883 157.599 63.265 158.216C63.613 158.535 63.965 158.844 64.319 159.155C64.6063 159.405 64.895 159.653 65.185 159.898C76.9622 169.877 91.8151 175.5 107.248 175.82C122.682 176.141 137.755 171.141 149.937 161.659C162.866 171.739 179.034 176.747 195.397 175.739C211.761 174.731 227.192 167.777 238.786 156.186L280.102 114.871C292.685 102.26 299.751 85.1722 299.751 67.3573C299.751 49.5424 292.684 32.4551 280.101 19.844ZM149.957 17.716C159.78 17.7097 169.384 20.6178 177.553 26.0721C185.723 31.5264 192.09 39.2817 195.85 48.3565C199.61 57.4313 200.593 67.4176 198.675 77.0513C196.757 86.6851 192.024 95.5333 185.075 102.476L149.957 137.593L114.838 102.476C107.889 95.5333 103.156 86.685 101.238 77.0511C99.3199 67.4172 100.303 57.4309 104.063 48.3561C107.823 39.2812 114.191 31.5259 122.36 26.0717C130.53 20.6175 140.134 17.7095 149.957 17.716ZM58.975 108.674C58.9571 102.149 60.2337 95.6858 62.7307 89.6578C65.2277 83.6298 68.8956 78.1569 73.522 73.556L82.869 64.209C82.4165 73.5518 83.9242 82.886 87.2953 91.6112C90.6664 100.336 95.8263 108.259 102.443 114.871L136.843 149.271C129.423 154.468 120.719 157.529 111.679 158.119C102.64 158.709 93.6113 156.807 85.5786 152.619C77.5459 148.43 70.817 142.118 66.1255 134.368C61.4341 126.619 58.96 117.73 58.973 108.671L58.975 108.674ZM32.042 102.311C23.2515 93.5226 18.0766 81.757 17.5395 69.3385C17.0024 56.92 21.1421 44.7515 29.1409 35.237C37.1397 25.7224 48.416 19.5536 60.7421 17.9491C73.0683 16.3446 85.548 19.4212 95.716 26.571L61.127 61.16C54.8679 67.3851 49.9057 74.7899 46.5276 82.9457C43.1496 91.1015 41.4227 99.8463 41.447 108.674C41.447 109.716 41.4713 110.754 41.52 111.789L32.042 102.311ZM191.275 158.337C181.128 158.361 171.221 155.253 162.906 149.437L197.475 114.871C204.092 108.259 209.251 100.336 212.622 91.611C215.993 82.8859 217.501 73.5518 217.049 64.209L226.396 73.556C233.342 80.5019 238.071 89.3514 239.987 98.9854C241.904 108.619 240.92 118.605 237.16 127.68C233.401 136.755 227.035 144.511 218.868 149.968C210.7 155.425 201.098 158.337 191.275 158.337ZM267.708 102.476L258.395 111.789C258.442 110.755 258.466 109.717 258.468 108.674C258.492 99.8463 256.765 91.1014 253.387 82.9456C250.009 74.7898 245.046 67.3851 238.787 61.16L204.222 26.594C214.408 19.5058 226.879 16.488 239.179 18.1347C251.479 19.7813 262.717 25.9732 270.68 35.4911C278.643 45.009 282.754 57.1632 282.204 69.5608C281.654 81.9583 276.483 93.7007 267.708 102.476Z" fill="url(#paint0_linear_2232_250)"/>
</g>
<path d="M370.408 84.903V97.121C370.408 104.064 368.659 109.585 365.16 113.685C361.716 117.73 356.741 119.753 350.236 119.753C343.731 119.753 338.729 117.73 335.23 113.685C331.786 109.585 330.064 104.064 330.064 97.121V84.903C330.064 78.015 331.786 72.5483 335.23 68.503C338.729 64.403 343.731 62.353 350.236 62.353C356.741 62.353 361.716 64.403 365.16 68.503C368.659 72.5483 370.408 78.015 370.408 84.903ZM363.028 84.903C363.028 79.819 361.935 75.9103 359.748 73.177C357.616 70.389 354.445 68.995 350.236 68.995C346.081 68.995 342.911 70.389 340.724 73.177C338.537 75.9103 337.444 79.819 337.444 84.903V97.121C337.444 102.26 338.537 106.223 340.724 109.011C342.911 111.799 346.081 113.193 350.236 113.193C354.445 113.193 357.616 111.799 359.748 109.011C361.935 106.223 363.028 102.26 363.028 97.121V84.903ZM403.574 83.837C402.043 83.837 400.239 84.2196 398.162 84.985C396.139 85.7503 393.679 87.3083 390.782 89.659V118.933H384.058V78.343H390.454V84.001C393.351 81.541 395.975 79.8463 398.326 78.917C400.731 77.9876 403.027 77.523 405.214 77.523C408.986 77.523 411.856 78.7256 413.824 81.131C415.846 83.4816 416.858 86.8436 416.858 91.217V118.933H410.134V92.201C410.134 86.625 407.947 83.837 403.574 83.837ZM430.822 109.093V58.253H437.546V108.765C437.546 110.241 437.764 111.362 438.202 112.127C438.694 112.838 439.65 113.193 441.072 113.193H442.384V119.343H440.498C436.89 119.343 434.375 118.386 432.954 116.473C431.532 114.56 430.822 112.1 430.822 109.093ZM466.383 123.033C464.633 127.953 462.474 131.534 459.905 133.775C457.39 136.071 453.864 137.219 449.327 137.219V130.577C451.185 130.522 452.771 130.276 454.083 129.839C455.449 129.402 456.652 128.5 457.691 127.133C458.784 125.821 459.823 123.853 460.807 121.229L461.627 119.179L447.031 78.343H453.919L460.725 98.105L464.907 110.733L468.925 98.105L475.567 78.343H482.209L466.383 123.033ZM521.378 118.933L517.934 108.027H498.828L495.384 118.933H485.626L504.24 63.173H512.932L531.628 118.933H521.378ZM504.158 90.971L501.616 99.007H515.064L512.522 90.971L508.422 76.867L504.158 90.971ZM559.248 85.313C557.881 85.313 556.323 85.641 554.574 86.297C552.824 86.953 550.747 88.2376 548.342 90.151V118.933H538.912V77.359H547.85V82.935C550.419 80.6936 552.852 79.081 555.148 78.097C557.444 77.0583 559.767 76.539 562.118 76.539C566.108 76.539 569.142 77.8236 571.22 80.393C573.297 82.9076 574.336 86.461 574.336 91.053V118.933H564.906V92.201C564.906 87.609 563.02 85.313 559.248 85.313ZM596.474 69.487H586.552V59.729H596.474V69.487ZM596.228 118.933H586.798V77.359H596.228V118.933ZM618.65 90.151V118.933H609.22V77.359H618.158V82.853C620.728 80.6116 623.106 78.999 625.292 78.015C627.479 77.031 629.72 76.539 632.016 76.539C637.1 76.539 640.572 78.7803 642.43 83.263C645.164 80.8576 647.706 79.1356 650.056 78.097C652.407 77.0583 654.785 76.539 657.19 76.539C661.017 76.539 663.942 77.8236 665.964 80.393C667.987 82.9076 668.998 86.461 668.998 91.053V118.933H659.568V92.201C659.568 87.609 657.819 85.313 654.32 85.313C652.954 85.313 651.45 85.641 649.81 86.297C648.17 86.953 646.175 88.2376 643.824 90.151V118.933H634.394V92.201C634.394 87.609 632.645 85.313 629.146 85.313C627.78 85.313 626.276 85.641 624.636 86.297C622.996 86.953 621.001 88.2376 618.65 90.151ZM713.021 116.555C710.178 117.703 707.499 118.523 704.985 119.015C702.47 119.507 700.092 119.753 697.851 119.753C691.673 119.753 686.999 118.004 683.829 114.505C680.658 111.006 679.073 106.36 679.073 100.565V95.645C679.073 91.7636 679.783 88.4016 681.205 85.559C682.626 82.7163 684.649 80.5023 687.273 78.917C689.897 77.3316 692.985 76.539 696.539 76.539C699.436 76.539 702.142 77.1403 704.657 78.343C707.226 79.491 709.303 81.3223 710.889 83.837C712.529 86.297 713.349 89.4676 713.349 93.349C713.349 94.497 713.267 95.727 713.103 97.039C712.939 98.2963 712.665 99.6356 712.283 101.057H688.175C688.284 104.446 689.131 106.988 690.717 108.683C692.302 110.378 694.844 111.225 698.343 111.225C700.201 111.225 702.115 111.006 704.083 110.569C706.105 110.132 708.183 109.476 710.315 108.601L713.021 116.555ZM696.539 84.493C694.024 84.493 692.056 85.313 690.635 86.953C689.268 88.5383 688.475 90.8343 688.257 93.841H704.001C704.055 93.5676 704.083 93.3216 704.083 93.103C704.083 92.8296 704.083 92.5836 704.083 92.365C704.083 89.741 703.345 87.773 701.869 86.461C700.393 85.149 698.616 84.493 696.539 84.493Z" fill="white"/>
<defs>
<linearGradient id="paint0_linear_2232_250" x1="149.875" y1="0.0222168" x2="149.875" y2="175.866" gradientUnits="userSpaceOnUse">
<stop stop-color="#1C65D1"/>
<stop offset="1" stop-color="#CD4CA9"/>
</linearGradient>
</defs>
</svg>
