<svg width="744" height="176" viewBox="0 0 744 176" fill="none" xmlns="http://www.w3.org/2000/svg">
<mask id="mask0_2232_250" style="mask-type:luminance" maskUnits="userSpaceOnUse" x="0" y="0" width="300" height="176">
<path d="M299.75 0H0V175.866H299.75V0Z" fill="white"/>
</mask>
<g mask="url(#mask0_2232_250)">
<path d="M280.101 19.844C268.507 8.25288 253.076 1.29897 236.712 0.290999C220.349 -0.716974 204.181 4.29048 191.252 14.371C179.446 5.19846 164.921 0.217892 149.97 0.214995C135.019 0.212098 120.493 5.18705 108.683 14.355C95.214 3.78625 78.219 -1.24313 61.1675 0.293639C44.1161 1.8304 28.2942 9.81743 16.9319 22.6241C5.56959 35.4308 -0.476213 52.0913 0.0287454 69.2044C0.533704 86.3175 7.55134 102.593 19.649 114.707L60.964 156.028C60.996 156.059 61.028 156.089 61.064 156.121C61.1 156.153 61.11 156.168 61.133 156.191C61.176 156.234 61.222 156.273 61.265 156.316C61.9217 156.966 62.5883 157.599 63.265 158.216C63.613 158.535 63.965 158.844 64.319 159.155C64.6063 159.405 64.895 159.653 65.185 159.898C76.9622 169.877 91.8151 175.5 107.248 175.82C122.682 176.141 137.755 171.141 149.937 161.659C162.866 171.739 179.034 176.747 195.397 175.739C211.761 174.731 227.192 167.777 238.786 156.186L280.102 114.871C292.685 102.26 299.751 85.1722 299.751 67.3573C299.751 49.5424 292.684 32.4551 280.101 19.844ZM149.957 17.716C159.78 17.7097 169.384 20.6178 177.553 26.0721C185.723 31.5264 192.09 39.2817 195.85 48.3565C199.61 57.4313 200.593 67.4176 198.675 77.0513C196.757 86.6851 192.024 95.5333 185.075 102.476L149.957 137.593L114.838 102.476C107.889 95.5333 103.156 86.685 101.238 77.0511C99.3199 67.4172 100.303 57.4309 104.063 48.3561C107.823 39.2812 114.191 31.5259 122.36 26.0717C130.53 20.6175 140.134 17.7095 149.957 17.716ZM58.975 108.674C58.9571 102.149 60.2337 95.6858 62.7307 89.6578C65.2277 83.6298 68.8956 78.1569 73.522 73.556L82.869 64.209C82.4165 73.5518 83.9242 82.886 87.2953 91.6112C90.6664 100.336 95.8263 108.259 102.443 114.871L136.843 149.271C129.423 154.468 120.719 157.529 111.679 158.119C102.64 158.709 93.6113 156.807 85.5786 152.619C77.5459 148.43 70.817 142.118 66.1255 134.368C61.4341 126.619 58.96 117.73 58.973 108.671L58.975 108.674ZM32.042 102.311C23.2515 93.5226 18.0766 81.757 17.5395 69.3385C17.0024 56.92 21.1421 44.7515 29.1409 35.237C37.1397 25.7224 48.416 19.5536 60.7421 17.9491C73.0683 16.3446 85.548 19.4212 95.716 26.571L61.127 61.16C54.8679 67.3851 49.9057 74.7899 46.5276 82.9457C43.1496 91.1015 41.4227 99.8463 41.447 108.674C41.447 109.716 41.4713 110.754 41.52 111.789L32.042 102.311ZM191.275 158.337C181.128 158.361 171.221 155.253 162.906 149.437L197.475 114.871C204.092 108.259 209.251 100.336 212.622 91.611C215.993 82.8859 217.501 73.5518 217.049 64.209L226.396 73.556C233.342 80.5019 238.071 89.3514 239.987 98.9854C241.904 108.619 240.92 118.605 237.16 127.68C233.401 136.755 227.035 144.511 218.868 149.968C210.7 155.425 201.098 158.337 191.275 158.337ZM267.708 102.476L258.395 111.789C258.442 110.755 258.466 109.717 258.468 108.674C258.492 99.8463 256.765 91.1014 253.387 82.9456C250.009 74.7898 245.046 67.3851 238.787 61.16L204.222 26.594C214.408 19.5058 226.879 16.488 239.179 18.1347C251.479 19.7813 262.717 25.9732 270.68 35.4911C278.643 45.009 282.754 57.1632 282.204 69.5608C281.654 81.9583 276.483 93.7007 267.708 102.476Z" fill="url(#paint0_linear_2232_250)"/>
</g>
<path d="M372.294 87.937V94.087C372.294 102.068 370.463 108.355 366.8 112.947C363.137 117.484 357.889 119.753 351.056 119.753C344.168 119.753 338.893 117.484 335.23 112.947C331.622 108.355 329.818 102.068 329.818 94.087V87.937C329.818 80.0103 331.622 73.7783 335.23 69.241C338.893 64.649 344.168 62.353 351.056 62.353C357.889 62.353 363.137 64.649 366.8 69.241C370.463 73.7783 372.294 80.0103 372.294 87.937ZM364.504 83.837C364.504 77.0036 363.356 72.1656 361.06 69.323C358.819 66.4256 355.484 64.977 351.056 64.977C346.628 64.977 343.266 66.4256 340.97 69.323C338.729 72.1656 337.608 77.0036 337.608 83.837V98.187C337.608 105.02 338.729 109.886 340.97 112.783C343.266 115.68 346.628 117.129 351.056 117.129C355.484 117.129 358.819 115.68 361.06 112.783C363.356 109.886 364.504 105.02 364.504 98.187V83.837ZM427.071 116.801V118.933H407.719V116.801L412.229 116.309C413.104 116.2 413.623 115.981 413.787 115.653C413.951 115.325 414.033 114.204 414.033 112.291V91.873C414.033 87.8276 413.377 84.985 412.065 83.345C410.753 81.6503 408.867 80.803 406.407 80.803C404.603 80.803 402.608 81.3496 400.421 82.443C398.235 83.5363 396.185 85.6683 394.271 88.839V112.291C394.271 114.204 394.353 115.325 394.517 115.653C394.681 115.981 395.201 116.2 396.075 116.309L400.585 116.801V118.933H381.233V116.801L385.743 116.309C386.618 116.2 387.137 115.981 387.301 115.653C387.465 115.325 387.547 114.204 387.547 112.291V84.985C387.547 83.0716 387.465 81.951 387.301 81.623C387.137 81.295 386.618 81.0763 385.743 80.967L381.233 80.557V78.343H393.861V84.985C395.829 82.361 398.043 80.475 400.503 79.327C403.018 78.1243 405.533 77.523 408.047 77.523C412.093 77.523 415.209 78.7803 417.395 81.295C419.637 83.755 420.757 87.2536 420.757 91.791V112.291C420.757 114.204 420.839 115.325 421.003 115.653C421.167 115.981 421.687 116.2 422.561 116.309L427.071 116.801ZM431.269 60.467V58.253H444.307V112.291C444.307 114.204 444.389 115.325 444.553 115.653C444.717 115.981 445.236 116.2 446.111 116.309L450.621 116.801V118.933H431.269V116.801L435.779 116.309C436.653 116.2 437.173 115.981 437.337 115.653C437.501 115.325 437.583 114.204 437.583 112.291V64.895C437.583 62.9816 437.501 61.861 437.337 61.533C437.173 61.205 436.653 60.9863 435.779 60.877L431.269 60.467ZM475.075 123.033C473.873 126.368 472.561 129.074 471.139 131.151C469.718 133.283 468.023 134.814 466.055 135.743C464.087 136.727 461.627 137.219 458.675 137.219V130.659C462.611 130.659 465.591 130.03 467.613 128.773C469.636 127.57 471.249 125.302 472.451 121.967L473.517 118.933H471.139L459.085 84.493C458.539 82.9076 458.129 81.9783 457.855 81.705C457.582 81.377 457.008 81.1583 456.133 81.049L451.951 80.557V78.343H470.647V80.557L466.465 81.049C465.7 81.1036 465.263 81.295 465.153 81.623C465.044 81.951 465.263 82.9076 465.809 84.493L475.649 112.865L485.571 84.411C486.063 82.8256 486.255 81.8963 486.145 81.623C486.091 81.3496 485.653 81.1583 484.833 81.049L480.569 80.557V78.343H495.575V80.557L491.393 81.049C490.573 81.1583 490.027 81.3496 489.753 81.623C489.48 81.8963 489.07 82.8256 488.523 84.411L475.075 123.033ZM510.772 116.637V118.933H494.945V116.637L499.456 116.063C500.057 115.954 500.494 115.844 500.768 115.735C501.041 115.571 501.287 115.216 501.506 114.669C501.724 114.122 502.025 113.248 502.408 112.045L518.07 63.173H525.122L540.866 112.045C541.248 113.248 541.549 114.122 541.767 114.669C541.986 115.216 542.232 115.571 542.506 115.735C542.834 115.844 543.271 115.954 543.818 116.063L548.328 116.637V118.933H525.696V116.637L530.206 116.063C531.08 115.954 531.545 115.735 531.6 115.407C531.709 115.024 531.463 113.904 530.862 112.045L527.746 101.877H508.804L505.606 112.045C505.059 113.904 504.813 115.024 504.868 115.407C504.922 115.735 505.387 115.954 506.261 116.063L510.772 116.637ZM509.788 99.007H526.844L518.398 71.783L509.788 99.007ZM597.993 116.637V118.933H575.935V116.637L580.445 116.063C581.319 115.954 581.839 115.735 582.003 115.407C582.167 115.024 582.249 113.904 582.249 112.045V91.381C582.249 87.609 581.675 84.8756 580.527 83.181C579.433 81.4316 577.793 80.557 575.607 80.557C574.677 80.557 573.584 80.803 572.327 81.295C571.124 81.7323 569.894 82.5523 568.637 83.755C567.434 84.9576 566.368 86.7343 565.439 89.085V112.045C565.439 113.904 565.521 115.024 565.685 115.407C565.849 115.735 566.368 115.954 567.243 116.063L571.753 116.637V118.933H549.695V116.637L554.205 116.063C555.079 115.954 555.599 115.735 555.763 115.407C555.927 115.024 556.009 113.904 556.009 112.045V84.247C556.009 82.3883 555.927 81.295 555.763 80.967C555.599 80.5843 555.079 80.3383 554.205 80.229L549.695 79.655V77.359H564.947V84.575C566.532 81.787 568.555 79.7643 571.015 78.507C573.529 77.195 576.044 76.539 578.559 76.539C582.604 76.539 585.802 77.8236 588.153 80.393C590.503 82.9623 591.679 86.5976 591.679 91.299V112.045C591.679 113.904 591.761 115.024 591.925 115.407C592.089 115.735 592.608 115.954 593.483 116.063L597.993 116.637ZM611.772 70.307C610.078 70.307 608.711 69.7876 607.672 68.749C606.634 67.6556 606.114 66.2616 606.114 64.567C606.114 62.8723 606.634 61.5056 607.672 60.467C608.711 59.4283 610.078 58.909 611.772 58.909C613.412 58.909 614.779 59.4283 615.872 60.467C616.966 61.5056 617.512 62.8723 617.512 64.567C617.512 66.2616 616.966 67.6556 615.872 68.749C614.779 69.7876 613.412 70.307 611.772 70.307ZM600.784 79.655V77.359H616.528V112.045C616.528 113.904 616.61 115.024 616.774 115.407C616.938 115.735 617.458 115.954 618.332 116.063L622.842 116.637V118.933H600.784V116.637L605.294 116.063C606.169 115.954 606.688 115.735 606.852 115.407C607.016 115.024 607.098 113.904 607.098 112.045V84.247C607.098 82.3883 607.016 81.295 606.852 80.967C606.688 80.5843 606.169 80.3383 605.294 80.229L600.784 79.655ZM673.487 116.637V118.933H651.429V116.637L655.939 116.063C656.814 115.954 657.333 115.735 657.497 115.407C657.661 115.024 657.743 113.904 657.743 112.045V91.381C657.743 87.609 657.224 84.8756 656.185 83.181C655.146 81.4316 653.588 80.557 651.511 80.557C650.636 80.557 649.598 80.803 648.395 81.295C647.192 81.7323 645.99 82.5523 644.787 83.755C643.639 84.9576 642.628 86.7343 641.753 89.085V112.045C641.753 113.904 641.835 115.024 641.999 115.407C642.163 115.735 642.682 115.954 643.557 116.063L648.067 116.637V118.933H626.009V116.637L630.519 116.063C631.394 115.954 631.913 115.735 632.077 115.407C632.241 115.024 632.323 113.904 632.323 112.045V84.247C632.323 82.3883 632.241 81.295 632.077 80.967C631.913 80.5843 631.394 80.3383 630.519 80.229L626.009 79.655V77.359H641.261V84.575C642.792 81.787 644.76 79.7643 647.165 78.507C649.57 77.195 652.003 76.539 654.463 76.539C657.415 76.539 659.902 77.3043 661.925 78.835C664.002 80.311 665.478 82.443 666.353 85.231C667.829 82.1696 669.824 79.9556 672.339 78.589C674.854 77.2223 677.368 76.539 679.883 76.539C683.764 76.539 686.853 77.8236 689.149 80.393C691.445 82.9623 692.593 86.5976 692.593 91.299V112.045C692.593 113.904 692.675 115.024 692.839 115.407C693.003 115.735 693.522 115.954 694.397 116.063L698.907 116.637V118.933H676.849V116.637L681.359 116.063C682.234 115.954 682.753 115.735 682.917 115.407C683.081 115.024 683.163 113.904 683.163 112.045V91.381C683.163 87.609 682.644 84.8756 681.605 83.181C680.566 81.4316 679.008 80.557 676.931 80.557C676.056 80.557 675.018 80.803 673.815 81.295C672.612 81.7323 671.41 82.5796 670.207 83.837C669.004 85.0943 667.966 86.9256 667.091 89.331C667.146 89.6043 667.173 89.9323 667.173 90.315C667.173 90.643 667.173 90.971 667.173 91.299V112.045C667.173 113.904 667.255 115.024 667.419 115.407C667.583 115.735 668.102 115.954 668.977 116.063L673.487 116.637ZM738.665 109.175C737.681 113.002 735.85 115.735 733.171 117.375C730.492 118.96 727.376 119.753 723.823 119.753C717.263 119.753 712.343 117.867 709.063 114.095C705.783 110.268 704.143 105.212 704.143 98.925V97.285C704.143 90.9983 705.674 85.969 708.735 82.197C711.851 78.425 716.334 76.539 722.183 76.539C725.463 76.539 728.36 77.195 730.875 78.507C733.444 79.7643 735.44 81.5956 736.861 84.001C738.337 86.4063 739.075 89.331 739.075 92.775C739.075 93.595 739.02 94.4696 738.911 95.399C738.856 96.3283 738.72 97.2576 738.501 98.187H714.229V100.565C714.229 106.36 715.049 110.542 716.689 113.111C718.329 115.626 720.98 116.883 724.643 116.883C726.994 116.883 728.989 116.2 730.629 114.833C732.269 113.412 733.198 111.034 733.417 107.699L738.665 109.175ZM722.183 79.409C719.504 79.409 717.509 80.639 716.197 83.099C714.885 85.559 714.229 89.6316 714.229 95.317H729.071C729.29 94.2236 729.426 93.2123 729.481 92.283C729.59 91.299 729.645 90.397 729.645 89.577C729.645 86.0783 728.962 83.509 727.595 81.869C726.228 80.229 724.424 79.409 722.183 79.409Z" fill="white"/>
<defs>
<linearGradient id="paint0_linear_2232_250" x1="149.875" y1="0.0222168" x2="149.875" y2="175.866" gradientUnits="userSpaceOnUse">
<stop stop-color="#1C65D1"/>
<stop offset="1" stop-color="#CD4CA9"/>
</linearGradient>
</defs>
</svg>
